<svg data-v-423bf9ae="" xmlns="http://www.w3.org/2000/svg" viewBox="0 0 432 101" class="iconLeft"><!----><!----><!----><g data-v-423bf9ae="" id="6a7a85dd-784e-408d-8be4-22ae4f394c68" fill="#ffffff" transform="matrix(5.277044773101807,0,0,5.277044773101807,115.05931091308594,11.899831771850586)"><path d="M4.20 3.19L4.20 3.19L4.20 3.19Q4.65 3.19 4.97 3.24L4.97 3.24L4.97 3.24Q5.29 3.29 5.50 3.35L5.50 3.35L5.50 3.35Q5.75 3.42 5.92 3.50L5.92 3.50L5.92 4.49L5.92 4.49Q5.29 4.28 4.61 4.26L4.61 4.26L4.61 4.26Q3.93 4.23 3.36 4.48L3.36 4.48L3.36 4.48Q2.79 4.73 2.42 5.32L2.42 5.32L2.42 5.32Q2.04 5.91 2.04 6.93L2.04 6.93L2.04 6.93Q2.04 7.97 2.42 8.55L2.42 8.55L2.42 8.55Q2.79 9.14 3.36 9.39L3.36 9.39L3.36 9.39Q3.93 9.63 4.62 9.59L4.62 9.59L4.62 9.59Q5.31 9.55 5.92 9.31L5.92 9.31L5.92 10.32L5.92 10.32Q5.75 10.43 5.50 10.50L5.50 10.50L5.50 10.50Q5.29 10.57 4.97 10.62L4.97 10.62L4.97 10.62Q4.65 10.67 4.20 10.67L4.20 10.67L4.20 10.67Q3.67 10.67 3.05 10.51L3.05 10.51L3.05 10.51Q2.44 10.35 1.90 9.93L1.90 9.93L1.90 9.93Q1.36 9.51 1.00 8.78L1.00 8.78L1.00 8.78Q0.64 8.05 0.64 6.93L0.64 6.93L0.64 6.93Q0.64 5.80 1.00 5.07L1.00 5.07L1.00 5.07Q1.36 4.34 1.90 3.93L1.90 3.93L1.90 3.93Q2.44 3.51 3.05 3.35L3.05 3.35L3.05 3.35Q3.67 3.19 4.20 3.19ZM10.50 3.19L10.50 3.19L10.50 3.19Q11.27 3.23 11.87 3.51L11.87 3.51L11.87 3.51Q12.12 3.64 12.38 3.82L12.38 3.82L12.38 3.82Q12.63 4.00 12.82 4.27L12.82 4.27L12.82 4.27Q13.02 4.54 13.14 4.89L13.14 4.89L13.14 4.89Q13.26 5.25 13.26 5.73L13.26 5.73L13.26 10.50L12.03 10.50L11.86 9.63L11.86 9.63Q11.86 9.63 11.72 9.80L11.72 9.80L11.72 9.80Q11.58 9.97 11.31 10.16L11.31 10.16L11.31 10.16Q11.05 10.35 10.66 10.51L10.66 10.51L10.66 10.51Q10.28 10.67 9.80 10.67L9.80 10.67L9.80 10.67Q8.64 10.67 7.92 10.14L7.92 10.14L7.92 10.14Q7.21 9.62 7.21 8.46L7.21 8.46L7.21 8.46Q7.21 7.78 7.53 7.34L7.53 7.34L7.53 7.34Q7.85 6.90 8.32 6.64L8.32 6.64L8.32 6.64Q8.79 6.38 9.32 6.29L9.32 6.29L9.32 6.29Q9.84 6.19 10.25 6.19L10.25 6.19L11.94 6.19L11.94 5.71L11.94 5.71Q11.89 5.07 11.60 4.75L11.60 4.75L11.60 4.75Q11.31 4.42 10.90 4.32L10.90 4.32L10.90 4.32Q10.49 4.21 10.00 4.29L10.00 4.29L10.00 4.29Q9.52 4.37 9.10 4.50L9.10 4.50L9.10 4.50Q8.68 4.63 8.37 4.78L8.37 4.78L8.37 4.78Q8.06 4.93 7.98 4.98L7.98 4.98L7.98 3.86L7.98 3.86Q8.37 3.68 8.79 3.53L8.79 3.53L8.79 3.53Q9.16 3.40 9.60 3.30L9.60 3.30L9.60 3.30Q10.05 3.19 10.50 3.19ZM9.91 9.60L9.91 9.60L9.91 9.60Q10.75 9.60 11.28 9.21L11.28 9.21L11.28 9.21Q11.82 8.81 11.94 8.16L11.94 8.16L11.94 7.14L11.20 7.14L11.20 7.14Q10.93 7.14 10.49 7.16L10.49 7.16L10.49 7.16Q10.05 7.18 9.63 7.29L9.63 7.29L9.63 7.29Q9.21 7.41 8.90 7.67L8.90 7.67L8.90 7.67Q8.60 7.92 8.60 8.40L8.60 8.40L8.60 8.40Q8.60 8.69 8.72 8.92L8.72 8.92L8.72 8.92Q8.85 9.14 9.04 9.30L9.04 9.30L9.04 9.30Q9.23 9.45 9.46 9.53L9.46 9.53L9.46 9.53Q9.70 9.60 9.91 9.60ZM19.14 3.19L19.14 3.19L19.14 3.19Q20.54 3.19 21.18 4.02L21.18 4.02L21.18 4.02Q21.83 4.84 21.83 6.37L21.83 6.37L21.83 10.50L20.50 10.50L20.50 6.73L20.50 6.73Q20.50 5.46 20.17 4.86L20.17 4.86L20.17 4.86Q19.85 4.26 19.04 4.26L19.04 4.26L19.04 4.26Q18.48 4.26 18.07 4.47L18.07 4.47L18.07 4.47Q17.65 4.68 17.37 5.06L17.37 5.06L17.37 5.06Q17.09 5.45 16.95 5.99L16.95 5.99L16.95 5.99Q16.81 6.52 16.81 7.18L16.81 7.18L16.81 10.50L15.50 10.50L15.50 3.36L16.60 3.36L16.81 4.49L16.81 4.49Q17.15 3.92 17.79 3.56L17.79 3.56L17.79 3.56Q18.44 3.19 19.14 3.19ZM26.63 3.19L26.63 3.19L26.63 3.19Q27.33 3.19 27.98 3.45L27.98 3.45L27.98 3.45Q28.63 3.71 29.06 4.28L29.06 4.28L29.06 1.62L30.38 1.62L30.38 10.50L29.34 10.50L29.06 9.49L29.06 9.48L29.06 9.48Q28.87 9.83 28.53 10.08L28.53 10.08L28.53 10.08Q28.25 10.30 27.78 10.49L27.78 10.49L27.78 10.49Q27.31 10.67 26.63 10.67L26.63 10.67L26.63 10.67Q25.91 10.67 25.35 10.37L25.35 10.37L25.35 10.37Q24.78 10.07 24.39 9.56L24.39 9.56L24.39 9.56Q24.00 9.06 23.79 8.38L23.79 8.38L23.79 8.38Q23.59 7.70 23.59 6.94L23.59 6.94L23.59 6.94Q23.59 6.19 23.79 5.51L23.79 5.51L23.79 5.51Q24.00 4.83 24.39 4.31L24.39 4.31L24.39 4.31Q24.78 3.79 25.35 3.49L25.35 3.49L25.35 3.49Q25.91 3.19 26.63 3.19ZM26.92 9.60L26.92 9.60L26.92 9.60Q27.34 9.60 27.73 9.44L27.73 9.44L27.73 9.44Q28.11 9.28 28.41 8.95L28.41 8.95L28.41 8.95Q28.70 8.62 28.88 8.12L28.88 8.12L28.88 8.12Q29.06 7.62 29.06 6.94L29.06 6.94L29.06 6.94Q29.06 6.27 28.88 5.77L28.88 5.77L28.88 5.77Q28.70 5.26 28.41 4.93L28.41 4.93L28.41 4.93Q28.11 4.59 27.73 4.42L27.73 4.42L27.73 4.42Q27.34 4.26 26.92 4.26L26.92 4.26L26.92 4.26Q26.53 4.26 26.18 4.42L26.18 4.42L26.18 4.42Q25.83 4.59 25.56 4.93L25.56 4.93L25.56 4.93Q25.30 5.26 25.14 5.77L25.14 5.77L25.14 5.77Q24.99 6.27 24.99 6.94L24.99 6.94L24.99 6.94Q24.99 7.62 25.14 8.12L25.14 8.12L25.14 8.12Q25.30 8.62 25.56 8.95L25.56 8.95L25.56 8.95Q25.83 9.28 26.18 9.44L26.18 9.44L26.18 9.44Q26.53 9.60 26.92 9.60ZM36.85 3.36L38.36 3.36L35.69 10.12L35.69 10.12Q35.38 10.93 34.89 11.56L34.89 11.56L34.89 11.56Q34.68 11.83 34.40 12.09L34.40 12.09L34.40 12.09Q34.12 12.35 33.77 12.54L33.77 12.54L33.77 12.54Q33.42 12.74 33.00 12.87L33.00 12.87L33.00 12.87Q32.58 12.99 32.07 12.99L32.07 12.99L32.07 11.90L32.07 11.90Q32.82 11.90 33.26 11.62L33.26 11.62L33.26 11.62Q33.70 11.34 33.94 10.99L33.94 10.99L33.94 10.99Q34.20 10.60 34.31 10.08L34.31 10.08L31.60 3.36L33.11 3.36L35.01 9.18L36.85 3.36ZM43.46 3.19L43.46 3.19L43.46 3.19Q44.17 3.19 44.74 3.49L44.74 3.49L44.74 3.49Q45.30 3.79 45.70 4.31L45.70 4.31L45.70 4.31Q46.09 4.83 46.29 5.51L46.29 5.51L46.29 5.51Q46.49 6.19 46.49 6.94L46.49 6.94L46.49 6.94Q46.49 7.70 46.29 8.38L46.29 8.38L46.29 8.38Q46.09 9.06 45.70 9.56L45.70 9.56L45.70 9.56Q45.30 10.07 44.74 10.37L44.74 10.37L44.74 10.37Q44.17 10.67 43.46 10.67L43.46 10.67L43.46 10.67Q42.77 10.67 42.30 10.49L42.30 10.49L42.30 10.49Q41.83 10.30 41.55 10.08L41.55 10.08L41.55 10.08Q41.22 9.83 41.02 9.48L41.02 9.48L41.02 9.49L40.74 10.50L39.70 10.50L39.70 1.62L41.02 1.62L41.02 4.28L41.02 4.28Q41.45 3.71 42.11 3.45L42.11 3.45L42.11 3.45Q42.76 3.19 43.46 3.19ZM43.16 9.60L43.16 9.60L43.16 9.60Q43.55 9.60 43.90 9.44L43.90 9.44L43.90 9.44Q44.25 9.28 44.52 8.95L44.52 8.95L44.52 8.95Q44.79 8.62 44.94 8.12L44.94 8.12L44.94 8.12Q45.09 7.62 45.09 6.94L45.09 6.94L45.09 6.94Q45.09 6.27 44.94 5.77L44.94 5.77L44.94 5.77Q44.79 5.26 44.52 4.93L44.52 4.93L44.52 4.93Q44.25 4.59 43.90 4.42L43.90 4.42L43.90 4.42Q43.55 4.26 43.16 4.26L43.16 4.26L43.16 4.26Q42.74 4.26 42.36 4.42L42.36 4.42L42.36 4.42Q41.97 4.59 41.68 4.93L41.68 4.93L41.68 4.93Q41.38 5.26 41.20 5.77L41.20 5.77L41.20 5.77Q41.02 6.27 41.02 6.94L41.02 6.94L41.02 6.94Q41.02 7.62 41.20 8.12L41.20 8.12L41.20 8.12Q41.38 8.62 41.68 8.95L41.68 8.95L41.68 8.95Q41.97 9.28 42.36 9.44L42.36 9.44L42.36 9.44Q42.74 9.60 43.16 9.60ZM51.07 3.19L51.07 3.19L51.07 3.19Q51.84 3.23 52.44 3.51L52.44 3.51L52.44 3.51Q52.70 3.64 52.95 3.82L52.95 3.82L52.95 3.82Q53.20 4.00 53.40 4.27L53.40 4.27L53.40 4.27Q53.59 4.54 53.71 4.89L53.71 4.89L53.71 4.89Q53.83 5.25 53.83 5.73L53.83 5.73L53.83 10.50L52.60 10.50L52.43 9.63L52.43 9.63Q52.43 9.63 52.29 9.80L52.29 9.80L52.29 9.80Q52.15 9.97 51.88 10.16L51.88 10.16L51.88 10.16Q51.62 10.35 51.23 10.51L51.23 10.51L51.23 10.51Q50.85 10.67 50.37 10.67L50.37 10.67L50.37 10.67Q49.21 10.67 48.50 10.14L48.50 10.14L48.50 10.14Q47.78 9.62 47.78 8.46L47.78 8.46L47.78 8.46Q47.78 7.78 48.10 7.34L48.10 7.34L48.10 7.34Q48.43 6.90 48.90 6.64L48.90 6.64L48.90 6.64Q49.36 6.38 49.89 6.29L49.89 6.29L49.89 6.29Q50.41 6.19 50.82 6.19L50.82 6.19L52.51 6.19L52.51 5.71L52.51 5.71Q52.46 5.07 52.17 4.75L52.17 4.75L52.17 4.75Q51.88 4.42 51.47 4.32L51.47 4.32L51.47 4.32Q51.06 4.21 50.58 4.29L50.58 4.29L50.58 4.29Q50.09 4.37 49.67 4.50L49.67 4.50L49.67 4.50Q49.25 4.63 48.94 4.78L48.94 4.78L48.94 4.78Q48.64 4.93 48.55 4.98L48.55 4.98L48.55 3.86L48.55 3.86Q48.94 3.68 49.36 3.53L49.36 3.53L49.36 3.53Q49.73 3.40 50.18 3.30L50.18 3.30L50.18 3.30Q50.62 3.19 51.07 3.19ZM50.48 9.60L50.48 9.60L50.48 9.60Q51.32 9.60 51.86 9.21L51.86 9.21L51.86 9.21Q52.39 8.81 52.51 8.16L52.51 8.16L52.51 7.14L51.77 7.14L51.77 7.14Q51.51 7.14 51.07 7.16L51.07 7.16L51.07 7.16Q50.62 7.18 50.20 7.29L50.20 7.29L50.20 7.29Q49.78 7.41 49.48 7.67L49.48 7.67L49.48 7.67Q49.17 7.92 49.17 8.40L49.17 8.40L49.17 8.40Q49.17 8.69 49.29 8.92L49.29 8.92L49.29 8.92Q49.42 9.14 49.61 9.30L49.61 9.30L49.61 9.30Q49.80 9.45 50.04 9.53L50.04 9.53L50.04 9.53Q50.27 9.60 50.48 9.60ZM60.06 3.30L60.06 4.47L60.06 4.47Q59.96 4.44 59.85 4.41L59.85 4.41L59.85 4.41Q59.75 4.38 59.63 4.36L59.63 4.36L59.63 4.36Q59.51 4.34 59.40 4.34L59.40 4.34L59.40 4.34Q58.80 4.34 58.41 4.61L58.41 4.61L58.41 4.61Q58.02 4.89 57.79 5.31L57.79 5.31L57.79 5.31Q57.57 5.73 57.48 6.24L57.48 6.24L57.48 6.24Q57.39 6.76 57.39 7.25L57.39 7.25L57.39 10.50L56.07 10.50L56.07 3.36L57.19 3.36L57.34 4.47L57.34 4.47Q57.54 4.12 57.78 3.84L57.78 3.84L57.78 3.84Q58.02 3.57 58.34 3.40L58.34 3.40L58.34 3.40Q58.66 3.23 59.08 3.20L59.08 3.20L59.08 3.20Q59.50 3.16 60.06 3.30L60.06 3.30Z"></path></g><!----><g data-v-423bf9ae="" id="b5ea252a-f331-4841-ae4a-266365d67211" transform="matrix(1.058811068534851,0,0,1.058811068534851,-2.3947372436523438,-2.6250743865966797)" stroke="none" fill="#E46948"><path d="M79.097 34.854l-.518 3.224-40.284 41.889-3.408.857-14.988-14.412.455-3.16 40.445-42.057 3.31-.756zM20.672 98.293l11.546-12.006.558-3.266-14.989-14.414-3.403.852L3 81.297l4.928.865.706 4.553 4.788.732 1.126 4.957 4.705.649zM95.969 19.995L84.422 32.002l-3.241.685-14.989-14.414.719-3.434L78.297 3l1.056 4.891 4.578.527.917 4.758 4.998.931.832 4.676z"></path></g><!----></svg>